:SAMPLES-PER-SECOND 30
:FULLY-SPECIFIED
:DEGREES
255
root  35.10681212 36.52166532 -14.57187022 11.18889236 8.924302101 3.82471323
lowerback  -8.410400391 2.032989979 1.427779675
upperback  -4.259890079 2.226860046 -4.17580986
thorax  0.5220890045 0.874382019 -4.941110134
lowerneck  -15.82839966 -0.1295730025 2.091739893
upperneck  13.82159996 -1.827000141 5.496709824
head  6.878530025 -0.3650530577 1.238409996
lclavicle  0 -4.497500157e-015 -2.743230041e-014
lhumerus  -43.93180084 26.20859909 68.28780365
lradius  -0.3011632562 -6.507048965e-006 27.42070007
lwrist  4.824992743e-007 -3.790274832e-007 -30.76530075
lhand  -4.418108711e-031 -36.94250107 -10.35639954
lfingers  90 7.125020027 -90
lthumb  94.76811891 -25.19669967 101.0854417
rclavicle  0 -4.497500157e-015 -2.743230041e-014
rhumerus  14.67269993 2.751730919 -54.84379959
rradius  -5.16745672e-007 2.214343908e-008 100.7149963
rwrist  1.129822067e-006 0.001802438172 177.8881683
rhand  -1.768079281e-031 3.057450056 -5.950059891
rfingers  -90 -7.125020027 -90
rthumb  -84.59812711 -9.830268758 -61.01961776
rfemur  -12.9885149 11.29558277 14.12998867
rtibia  -1.651734114 1.884301424 21.77448463
rfoot  -1.466158748 -16.02424431 -42.76451492
rtoes  3.779771768 19.65396365 -101.1128436
lfemur  -11.154356 -21.7097683 -18.70483589
ltibia  3.298923731 2.09508419 14.38144779
lfoot  0.617167592 -29.0386467 31.20624924
ltoes  -8.660833745 -18.09709556 -116.12183
256
root  35.10894775 36.52237119 -14.57196183 11.12337494 8.804857254 3.820974112
lowerback  -8.449730873 1.999420047 1.423270226
upperback  -4.223899841 2.186000109 -4.160140038
thorax  0.5763869882 0.8565930128 -4.924479961
lowerneck  -15.88539982 -0.1033060029 2.071269989
upperneck  13.86299992 -1.800969958 5.540820122
head  6.901959896 -0.348298043 1.259050012
lclavicle  0 -4.497500157e-015 -2.743230041e-014
lhumerus  -43.87170029 26.30050087 68.31800079
lradius  -0.2983871698 -6.507048965e-006 27.46789932
lwrist  4.824992743e-007 -3.790274832e-007 -30.71879959
lhand  -0 -36.95510101 -10.36509991
lfingers  90 7.125020027 -90
lthumb  94.77577038 -25.20481961 101.0996093
rclavicle  0 -4.497500157e-015 -2.743230041e-014
rhumerus  13.12290096 2.780109644 -55.37129974
rradius  -5.16745672e-007 2.214343908e-008 101.4729996
rwrist  1.129822067e-006 0.001802438172 177.9041901
rhand  -1.768241542e-031 3.154350042 -5.80095005
rfingers  -90 -7.125020027 -90
rthumb  -84.50091829 -9.965484567 -60.9121963
rfemur  -12.90196323 11.32923222 14.11658001
rtibia  -1.630859494 1.845284224 21.71093369
rfoot  -1.428558707 -16.09367752 -42.70378113
rtoes  3.773962694 19.65503736 -101.0955726
lfemur  -11.03246117 -21.66103172 -18.76324654
ltibia  3.319571733 2.06939435 14.32514572
lfoot  0.6145220399 -28.98743248 31.27791595
ltoes  -8.668102293 -18.09370584 -116.1452316
257
root  35.11039554 36.52293889 -14.57126948 11.06446934 8.669473648 3.803913832
lowerback  -8.470708847 1.954070091 1.387979627
upperback  -4.181839943 2.132159948 -4.143780231
thorax  0.6245120168 0.8328530192 -4.891220093
lowerneck  -15.99400043 -0.03252929822 2.129390001
upperneck  13.94540024 -1.724789977 5.51733017
head  6.945330143 -0.3068020046 1.25067997
lclavicle  0 -4.497500157e-015 -2.743230041e-014
lhumerus  -43.79090118 26.45540047 68.28220367
lradius  -0.2955960929 -6.507048965e-006 27.41259956
lwrist  4.824992743e-007 -3.790274832e-007 -30.86829948
lhand  -4.4203722e-031 -36.98149872 -10.36349964
lfingers  90 7.125020027 -90
lthumb  94.78764474 -25.20230088 101.1276582
rclavicle  0 -4.497500157e-015 -2.743230041e-014
rhumerus  11.50259876 2.833880663 -55.84540176
rradius  -5.16745672e-007 2.214343908e-008 102.3420029
rwrist  1.129822067e-006 0.001802438172 177.8742523
rhand  -1.768210677e-031 3.136149883 -5.818649769
rfingers  -90 -7.125020027 -90
rthumb  -84.51415483 -9.949050752 -60.93144592
rfemur  -12.82016659 11.34091854 14.10902977
rtibia  -1.602436066 1.791553497 21.62478447
rfoot  -1.374288559 -16.19068336 -42.60946655
rtoes  3.792956318 19.65152032 -101.1520462
lfemur  -11.00133991 -21.67094994 -18.7708683
ltibia  3.280612707 2.006664038 14.38861942
lfoot  0.6124014258 -28.90505219 31.36365509
ltoes  -8.645420154 -18.10427197 -116.0722188
258
root  35.11248611 36.52455788 -14.57122442 11.01104641 8.539598465 3.804878473
lowerback  -8.494600296 1.916159868 1.368559599
upperback  -4.146019936 2.086970091 -4.119269848
thorax  0.6689609885 0.813207984 -4.857679844
lowerneck  -16.03100014 0.01751649939 2.157850027
upperneck  13.96619987 -1.664430022 5.505539894
head  6.956999779 -0.2761180103 1.248839974
lclavicle  0 -4.497500157e-015 -2.743230041e-014
lhumerus  -43.72000122 26.46479988 68.33139801
lradius  -0.2927899659 -6.507048965e-006 27.39799881
lwrist  4.824992743e-007 -3.790274832e-007 -30.91559982
lhand  -0 -37.03469849 -10.45030022
lfingers  90 7.125020027 -90
lthumb  94.83085653 -25.28561151 101.1923245
rclavicle  0 -4.497500157e-015 -2.743230041e-014
rhumerus  9.810091019 2.864749432 -56.24110031
rradius  -5.16745672e-007 2.214343908e-008 103.2490005
rwrist  1.129822067e-006 0.001802438172 177.8573303
rhand  -1.768362706e-031 3.22480011 -5.970089912
rfingers  -90 -7.125020027 -90
rthumb  -84.56717232 -9.821213906 -60.85758115
rfemur  -12.76242733 11.37033939 14.09010124
rtibia  -1.58806324 1.760467172 21.58612251
rfoot  -1.3338871 -16.23975372 -42.51477051
rtoes  3.798479056 19.65049422 -101.1684687
lfemur  -10.93218231 -21.63792801 -18.81654549
ltibia  3.277399063 1.959953904 14.3852005
lfoot  0.612506628 -28.8279953 31.4164505
ltoes  -8.65605228 -18.09932348 -116.106438
259
root  35.11248911 36.52507452 -14.5726707 10.97626781 8.405207634 3.814511061
lowerback  -8.521478653 1.878200173 1.382959604
upperback  -4.09980011 2.041039944 -4.091060162
thorax  0.7268599868 0.7938690186 -4.839459896
lowerneck  -16.10910034 0.05299239978 2.188560009
upperneck  14.02439976 -1.624840021 5.474629879
head  6.988049984 -0.2552340627 1.238569975
lclavicle  0 -4.497500157e-015 -2.743230041e-014
lhumerus  -43.78580093 26.44930077 68.44509888
lradius  -0.2899537086 -6.507048965e-006 27.59910202
lwrist  4.824992743e-007 -3.790274832e-007 -30.7696991
lhand  -4.422273508e-031 -37.0141983 -10.29049969
lfingers  90 7.125020027 -90
lthumb  94.78717414 -25.12951046 101.1559589
rclavicle  0 -4.497500157e-015 -2.743230041e-014
rhumerus  8.20344162 2.88250041 -56.66230011
rradius  -5.16745672e-007 2.214343908e-008 103.9899979
rwrist  1.129822067e-006 0.001802438172 177.9333344
rhand  -1.768379041e-031 3.234179974 -6.052840233
rfingers  -90 -7.125020027 -90
rthumb  -84.60575523 -9.749444963 -60.85531019
rfemur  -12.73752975 11.36470604 14.05921078
rtibia  -1.578766227 1.6838094 21.57542419
rfoot  -1.333940506 -16.39828682 -42.44348526
rtoes  3.821813222 19.64614169 -101.2378649
lfemur  -10.86030293 -21.64574814 -18.86682892
ltibia  3.294134617 1.914023995 14.340168
lfoot  0.6176305413 -28.7195549 31.53352928
ltoes  -8.651916086 -18.10124949 -116.0931247
